<svg xmlns="http://www.w3.org/2000/svg" width="24" height="24" viewBox="0 0 24 24" fill="none" stroke="rgb(156 163 175)"  stroke-width="2" stroke-linecap="round" stroke-linejoin="round">
  <path class="hs-password-active:hidden" d="M9.88 9.88a3 3 0 1 0 4.24 4.24"></path>
  <path class="hs-password-active:hidden" d="M10.73 5.08A10.43 10.43 0 0 1 12 5c7 0 10 7 10 7a13.16 13.16 0 0 1-1.67 2.68"></path>
  <path class="hs-password-active:hidden" d="M6.61 6.61A13.526 13.526 0 0 0 2 12s3 7 10 7a9.74 9.74 0 0 0 5.39-1.61"></path>
  <line class="hs-password-active:hidden" x1="2" x2="22" y1="2" y2="22"></line>
  <path class="hidden hs-password-active:block" d="M2 12s3-7 10-7 10 7 10 7-3 7-10 7-10-7-10-7Z"></path>
  <circle class="hidden hs-password-active:block" cx="12" cy="12" r="3"></circle>
</svg>